ISO-10303-21;
HEADER;
/* Generated by software containing ST-Developer
 * from STEP Tools, Inc. (www.steptools.com) 
 */
/* OPTION: using custom renumber hook */

FILE_DESCRIPTION(
/* description */ ('STEP AP242 Edition 2',
'CAx-IF Rec.Pracs.---Representation and Presentation of Product Manufa
cturing Information (PMI)---4.0---2014-10-13',
'CAx-IF Rec.Pracs.---3D Tessellated Geometry---0.4---2014-09-14','2;1',
'CAx-IF Rec.Pracs.---User Defined Attributes---1.5---2016-08-15'),
/* implementation_level */ '2;1');

FILE_NAME(
/* name */ 'Deimos-4 Drummachine - Button-body_1',
/* time_stamp */ '2026-08-18T21:02:33Z',
/* author */ (''),
/* organization */ (''),
/* preprocessor_version */ 'ST-DEVELOPER v20',
/* originating_system */ 'ONSHAPE BY PTC INC, 1.219',
/* authorisation */ '  ');

FILE_SCHEMA (('AP242_MANAGED_MODEL_BASED_3D_ENGINEERING_MIM_LF { 1 0 10303 442 3 1 4 }'));
ENDSEC;

DATA;
#10=SHAPE_REPRESENTATION_RELATIONSHIP('','',#315,#11);
#11=ADVANCED_BREP_SHAPE_REPRESENTATION('',(#313),#495);
#12=CIRCLE('',#332,0.0021);
#13=CIRCLE('',#333,0.0021);
#14=CYLINDRICAL_SURFACE('',#331,0.0021);
#15=ORIENTED_EDGE('',*,*,#91,.F.);
#16=ORIENTED_EDGE('',*,*,#92,.T.);
#17=ORIENTED_EDGE('',*,*,#93,.T.);
#18=ORIENTED_EDGE('',*,*,#94,.F.);
#19=ORIENTED_EDGE('',*,*,#95,.F.);
#20=ORIENTED_EDGE('',*,*,#96,.T.);
#21=ORIENTED_EDGE('',*,*,#94,.T.);
#22=ORIENTED_EDGE('',*,*,#97,.F.);
#23=ORIENTED_EDGE('',*,*,#98,.F.);
#24=ORIENTED_EDGE('',*,*,#99,.T.);
#25=ORIENTED_EDGE('',*,*,#95,.T.);
#26=ORIENTED_EDGE('',*,*,#100,.F.);
#27=ORIENTED_EDGE('',*,*,#101,.F.);
#28=ORIENTED_EDGE('',*,*,#98,.T.);
#29=ORIENTED_EDGE('',*,*,#102,.T.);
#30=ORIENTED_EDGE('',*,*,#92,.F.);
#31=ORIENTED_EDGE('',*,*,#103,.F.);
#32=ORIENTED_EDGE('',*,*,#104,.F.);
#33=ORIENTED_EDGE('',*,*,#105,.T.);
#34=ORIENTED_EDGE('',*,*,#106,.T.);
#35=ORIENTED_EDGE('',*,*,#107,.T.);
#36=ORIENTED_EDGE('',*,*,#108,.F.);
#37=ORIENTED_EDGE('',*,*,#109,.F.);
#38=ORIENTED_EDGE('',*,*,#104,.T.);
#39=ORIENTED_EDGE('',*,*,#110,.T.);
#40=ORIENTED_EDGE('',*,*,#111,.F.);
#41=ORIENTED_EDGE('',*,*,#112,.F.);
#42=ORIENTED_EDGE('',*,*,#108,.T.);
#43=ORIENTED_EDGE('',*,*,#113,.T.);
#44=ORIENTED_EDGE('',*,*,#114,.T.);
#45=ORIENTED_EDGE('',*,*,#115,.F.);
#46=ORIENTED_EDGE('',*,*,#116,.F.);
#47=ORIENTED_EDGE('',*,*,#117,.F.);
#48=ORIENTED_EDGE('',*,*,#118,.F.);
#49=ORIENTED_EDGE('',*,*,#119,.T.);
#50=ORIENTED_EDGE('',*,*,#115,.T.);
#51=ORIENTED_EDGE('',*,*,#120,.F.);
#52=ORIENTED_EDGE('',*,*,#121,.F.);
#53=ORIENTED_EDGE('',*,*,#122,.T.);
#54=ORIENTED_EDGE('',*,*,#118,.T.);
#55=ORIENTED_EDGE('',*,*,#121,.T.);
#56=ORIENTED_EDGE('',*,*,#123,.T.);
#57=ORIENTED_EDGE('',*,*,#113,.F.);
#58=ORIENTED_EDGE('',*,*,#124,.F.);
#59=ORIENTED_EDGE('',*,*,#125,.F.);
#60=ORIENTED_EDGE('',*,*,#106,.F.);
#61=ORIENTED_EDGE('',*,*,#126,.T.);
#62=ORIENTED_EDGE('',*,*,#111,.T.);
#63=ORIENTED_EDGE('',*,*,#116,.T.);
#64=ORIENTED_EDGE('',*,*,#119,.F.);
#65=ORIENTED_EDGE('',*,*,#122,.F.);
#66=ORIENTED_EDGE('',*,*,#124,.T.);
#67=ORIENTED_EDGE('',*,*,#105,.F.);
#68=ORIENTED_EDGE('',*,*,#109,.T.);
#69=ORIENTED_EDGE('',*,*,#112,.T.);
#70=ORIENTED_EDGE('',*,*,#126,.F.);
#71=ORIENTED_EDGE('',*,*,#93,.F.);
#72=ORIENTED_EDGE('',*,*,#102,.F.);
#73=ORIENTED_EDGE('',*,*,#100,.T.);
#74=ORIENTED_EDGE('',*,*,#97,.T.);
#75=ORIENTED_EDGE('',*,*,#103,.T.);
#76=ORIENTED_EDGE('',*,*,#125,.T.);
#77=ORIENTED_EDGE('',*,*,#110,.F.);
#78=ORIENTED_EDGE('',*,*,#107,.F.);
#79=ORIENTED_EDGE('',*,*,#127,.T.);
#80=ORIENTED_EDGE('',*,*,#128,.F.);
#81=ORIENTED_EDGE('',*,*,#127,.F.);
#82=ORIENTED_EDGE('',*,*,#123,.F.);
#83=ORIENTED_EDGE('',*,*,#120,.T.);
#84=ORIENTED_EDGE('',*,*,#117,.T.);
#85=ORIENTED_EDGE('',*,*,#114,.F.);
#86=ORIENTED_EDGE('',*,*,#128,.T.);
#87=ORIENTED_EDGE('',*,*,#101,.T.);
#88=ORIENTED_EDGE('',*,*,#91,.T.);
#89=ORIENTED_EDGE('',*,*,#96,.F.);
#90=ORIENTED_EDGE('',*,*,#99,.F.);
#91=EDGE_CURVE('',#129,#130,#155,.T.);
#92=EDGE_CURVE('',#129,#131,#156,.T.);
#93=EDGE_CURVE('',#131,#132,#157,.T.);
#94=EDGE_CURVE('',#130,#132,#158,.T.);
#95=EDGE_CURVE('',#133,#134,#159,.T.);
#96=EDGE_CURVE('',#133,#130,#160,.T.);
#97=EDGE_CURVE('',#134,#132,#161,.T.);
#98=EDGE_CURVE('',#135,#136,#162,.T.);
#99=EDGE_CURVE('',#135,#133,#163,.T.);
#100=EDGE_CURVE('',#136,#134,#164,.T.);
#101=EDGE_CURVE('',#135,#129,#165,.T.);
#102=EDGE_CURVE('',#136,#131,#166,.T.);
#103=EDGE_CURVE('',#137,#138,#167,.T.);
#104=EDGE_CURVE('',#139,#137,#168,.T.);
#105=EDGE_CURVE('',#139,#140,#169,.T.);
#106=EDGE_CURVE('',#140,#138,#170,.T.);
#107=EDGE_CURVE('',#137,#141,#171,.T.);
#108=EDGE_CURVE('',#142,#141,#172,.T.);
#109=EDGE_CURVE('',#139,#142,#173,.T.);
#110=EDGE_CURVE('',#141,#143,#174,.T.);
#111=EDGE_CURVE('',#144,#143,#175,.T.);
#112=EDGE_CURVE('',#142,#144,#176,.T.);
#113=EDGE_CURVE('',#145,#146,#177,.T.);
#114=EDGE_CURVE('',#146,#147,#178,.T.);
#115=EDGE_CURVE('',#148,#147,#179,.T.);
#116=EDGE_CURVE('',#145,#148,#180,.T.);
#117=EDGE_CURVE('',#149,#147,#181,.T.);
#118=EDGE_CURVE('',#150,#149,#182,.T.);
#119=EDGE_CURVE('',#150,#148,#183,.T.);
#120=EDGE_CURVE('',#151,#149,#184,.T.);
#121=EDGE_CURVE('',#152,#151,#185,.T.);
#122=EDGE_CURVE('',#152,#150,#186,.T.);
#123=EDGE_CURVE('',#151,#146,#187,.T.);
#124=EDGE_CURVE('',#152,#145,#188,.T.);
#125=EDGE_CURVE('',#138,#143,#189,.T.);
#126=EDGE_CURVE('',#140,#144,#190,.T.);
#127=EDGE_CURVE('',#153,#153,#12,.T.);
#128=EDGE_CURVE('',#154,#154,#13,.T.);
#129=VERTEX_POINT('',#415);
#130=VERTEX_POINT('',#416);
#131=VERTEX_POINT('',#418);
#132=VERTEX_POINT('',#420);
#133=VERTEX_POINT('',#424);
#134=VERTEX_POINT('',#425);
#135=VERTEX_POINT('',#430);
#136=VERTEX_POINT('',#431);
#137=VERTEX_POINT('',#439);
#138=VERTEX_POINT('',#440);
#139=VERTEX_POINT('',#442);
#140=VERTEX_POINT('',#444);
#141=VERTEX_POINT('',#448);
#142=VERTEX_POINT('',#450);
#143=VERTEX_POINT('',#454);
#144=VERTEX_POINT('',#456);
#145=VERTEX_POINT('',#460);
#146=VERTEX_POINT('',#461);
#147=VERTEX_POINT('',#463);
#148=VERTEX_POINT('',#465);
#149=VERTEX_POINT('',#469);
#150=VERTEX_POINT('',#471);
#151=VERTEX_POINT('',#475);
#152=VERTEX_POINT('',#477);
#153=VERTEX_POINT('',#489);
#154=VERTEX_POINT('',#491);
#155=LINE('',#414,#191);
#156=LINE('',#417,#192);
#157=LINE('',#419,#193);
#158=LINE('',#421,#194);
#159=LINE('',#423,#195);
#160=LINE('',#426,#196);
#161=LINE('',#427,#197);
#162=LINE('',#429,#198);
#163=LINE('',#432,#199);
#164=LINE('',#433,#200);
#165=LINE('',#435,#201);
#166=LINE('',#436,#202);
#167=LINE('',#438,#203);
#168=LINE('',#441,#204);
#169=LINE('',#443,#205);
#170=LINE('',#445,#206);
#171=LINE('',#447,#207);
#172=LINE('',#449,#208);
#173=LINE('',#451,#209);
#174=LINE('',#453,#210);
#175=LINE('',#455,#211);
#176=LINE('',#457,#212);
#177=LINE('',#459,#213);
#178=LINE('',#462,#214);
#179=LINE('',#464,#215);
#180=LINE('',#466,#216);
#181=LINE('',#468,#217);
#182=LINE('',#470,#218);
#183=LINE('',#472,#219);
#184=LINE('',#474,#220);
#185=LINE('',#476,#221);
#186=LINE('',#478,#222);
#187=LINE('',#480,#223);
#188=LINE('',#481,#224);
#189=LINE('',#483,#225);
#190=LINE('',#484,#226);
#191=VECTOR('',#340,1.);
#192=VECTOR('',#341,1.);
#193=VECTOR('',#342,1.);
#194=VECTOR('',#343,1.);
#195=VECTOR('',#346,1.);
#196=VECTOR('',#347,1.);
#197=VECTOR('',#348,1.);
#198=VECTOR('',#351,1.);
#199=VECTOR('',#352,1.);
#200=VECTOR('',#353,1.);
#201=VECTOR('',#356,1.);
#202=VECTOR('',#357,1.);
#203=VECTOR('',#360,1.);
#204=VECTOR('',#361,1.);
#205=VECTOR('',#362,1.);
#206=VECTOR('',#363,1.);
#207=VECTOR('',#366,1.);
#208=VECTOR('',#367,1.);
#209=VECTOR('',#368,1.);
#210=VECTOR('',#371,1.);
#211=VECTOR('',#372,1.);
#212=VECTOR('',#373,1.);
#213=VECTOR('',#376,1.);
#214=VECTOR('',#377,1.);
#215=VECTOR('',#378,1.);
#216=VECTOR('',#379,1.);
#217=VECTOR('',#382,1.);
#218=VECTOR('',#383,1.);
#219=VECTOR('',#384,1.);
#220=VECTOR('',#387,1.);
#221=VECTOR('',#388,1.);
#222=VECTOR('',#389,1.);
#223=VECTOR('',#392,1.);
#224=VECTOR('',#393,1.);
#225=VECTOR('',#396,1.);
#226=VECTOR('',#397,1.);
#227=EDGE_LOOP('',(#15,#16,#17,#18));
#228=EDGE_LOOP('',(#19,#20,#21,#22));
#229=EDGE_LOOP('',(#23,#24,#25,#26));
#230=EDGE_LOOP('',(#27,#28,#29,#30));
#231=EDGE_LOOP('',(#31,#32,#33,#34));
#232=EDGE_LOOP('',(#35,#36,#37,#38));
#233=EDGE_LOOP('',(#39,#40,#41,#42));
#234=EDGE_LOOP('',(#43,#44,#45,#46));
#235=EDGE_LOOP('',(#47,#48,#49,#50));
#236=EDGE_LOOP('',(#51,#52,#53,#54));
#237=EDGE_LOOP('',(#55,#56,#57,#58));
#238=EDGE_LOOP('',(#59,#60,#61,#62));
#239=EDGE_LOOP('',(#63,#64,#65,#66));
#240=EDGE_LOOP('',(#67,#68,#69,#70));
#241=EDGE_LOOP('',(#71,#72,#73,#74));
#242=EDGE_LOOP('',(#75,#76,#77,#78));
#243=EDGE_LOOP('',(#79));
#244=EDGE_LOOP('',(#80));
#245=EDGE_LOOP('',(#81));
#246=EDGE_LOOP('',(#82,#83,#84,#85));
#247=EDGE_LOOP('',(#86));
#248=EDGE_LOOP('',(#87,#88,#89,#90));
#249=FACE_BOUND('',#227,.T.);
#250=FACE_BOUND('',#228,.T.);
#251=FACE_BOUND('',#229,.T.);
#252=FACE_BOUND('',#230,.T.);
#253=FACE_BOUND('',#231,.T.);
#254=FACE_BOUND('',#232,.T.);
#255=FACE_BOUND('',#233,.T.);
#256=FACE_BOUND('',#234,.T.);
#257=FACE_BOUND('',#235,.T.);
#258=FACE_BOUND('',#236,.T.);
#259=FACE_BOUND('',#237,.T.);
#260=FACE_BOUND('',#238,.T.);
#261=FACE_BOUND('',#239,.T.);
#262=FACE_BOUND('',#240,.T.);
#263=FACE_BOUND('',#241,.T.);
#264=FACE_BOUND('',#242,.T.);
#265=FACE_BOUND('',#243,.T.);
#266=FACE_BOUND('',#244,.T.);
#267=FACE_BOUND('',#245,.T.);
#268=FACE_BOUND('',#246,.T.);
#269=FACE_BOUND('',#247,.T.);
#270=FACE_BOUND('',#248,.T.);
#271=PLANE('',#317);
#272=PLANE('',#318);
#273=PLANE('',#319);
#274=PLANE('',#320);
#275=PLANE('',#321);
#276=PLANE('',#322);
#277=PLANE('',#323);
#278=PLANE('',#324);
#279=PLANE('',#325);
#280=PLANE('',#326);
#281=PLANE('',#327);
#282=PLANE('',#328);
#283=PLANE('',#329);
#284=PLANE('',#330);
#285=PLANE('',#334);
#286=PLANE('',#335);
#287=ADVANCED_FACE('',(#249),#271,.F.);
#288=ADVANCED_FACE('',(#250),#272,.T.);
#289=ADVANCED_FACE('',(#251),#273,.T.);
#290=ADVANCED_FACE('',(#252),#274,.F.);
#291=ADVANCED_FACE('',(#253),#275,.T.);
#292=ADVANCED_FACE('',(#254),#276,.F.);
#293=ADVANCED_FACE('',(#255),#277,.F.);
#294=ADVANCED_FACE('',(#256),#278,.F.);
#295=ADVANCED_FACE('',(#257),#279,.T.);
#296=ADVANCED_FACE('',(#258),#280,.T.);
#297=ADVANCED_FACE('',(#259),#281,.F.);
#298=ADVANCED_FACE('',(#260),#282,.T.);
#299=ADVANCED_FACE('',(#261,#262),#283,.T.);
#300=ADVANCED_FACE('',(#263,#264),#284,.F.);
#301=ADVANCED_FACE('',(#265,#266),#14,.F.);
#302=ADVANCED_FACE('',(#267,#268),#285,.T.);
#303=ADVANCED_FACE('',(#269,#270),#286,.F.);
#304=CLOSED_SHELL('',(#287,#288,#289,#290,#291,#292,#293,#294,#295,#296,
#297,#298,#299,#300,#301,#302,#303));
#305=STYLED_ITEM('',(#306),#313);
#306=PRESENTATION_STYLE_ASSIGNMENT((#307));
#307=SURFACE_STYLE_USAGE(.BOTH.,#308);
#308=SURFACE_SIDE_STYLE('',(#309));
#309=SURFACE_STYLE_FILL_AREA(#310);
#310=FILL_AREA_STYLE('',(#311));
#311=FILL_AREA_STYLE_COLOUR('',#312);
#312=COLOUR_RGB('',0.498039215686275,0.498039215686275,0.498039215686275);
#313=MANIFOLD_SOLID_BREP('Button-body_1',#304);
#314=SHAPE_DEFINITION_REPRESENTATION(#500,#315);
#315=SHAPE_REPRESENTATION('Button-body_1',(#316),#495);
#316=AXIS2_PLACEMENT_3D('',#412,#336,#337);
#317=AXIS2_PLACEMENT_3D('',#413,#338,#339);
#318=AXIS2_PLACEMENT_3D('',#422,#344,#345);
#319=AXIS2_PLACEMENT_3D('',#428,#349,#350);
#320=AXIS2_PLACEMENT_3D('',#434,#354,#355);
#321=AXIS2_PLACEMENT_3D('',#437,#358,#359);
#322=AXIS2_PLACEMENT_3D('',#446,#364,#365);
#323=AXIS2_PLACEMENT_3D('',#452,#369,#370);
#324=AXIS2_PLACEMENT_3D('',#458,#374,#375);
#325=AXIS2_PLACEMENT_3D('',#467,#380,#381);
#326=AXIS2_PLACEMENT_3D('',#473,#385,#386);
#327=AXIS2_PLACEMENT_3D('',#479,#390,#391);
#328=AXIS2_PLACEMENT_3D('',#482,#394,#395);
#329=AXIS2_PLACEMENT_3D('',#485,#398,#399);
#330=AXIS2_PLACEMENT_3D('',#486,#400,#401);
#331=AXIS2_PLACEMENT_3D('',#487,#402,#403);
#332=AXIS2_PLACEMENT_3D('',#488,#404,#405);
#333=AXIS2_PLACEMENT_3D('',#490,#406,#407);
#334=AXIS2_PLACEMENT_3D('',#492,#408,#409);
#335=AXIS2_PLACEMENT_3D('',#493,#410,#411);
#336=DIRECTION('',(0.,0.,1.));
#337=DIRECTION('',(1.,0.,0.));
#338=DIRECTION('',(1.,0.,0.));
#339=DIRECTION('',(0.,0.,-1.));
#340=DIRECTION('',(0.,-1.,0.));
#341=DIRECTION('',(0.,0.,-1.));
#342=DIRECTION('',(0.,-1.,0.));
#343=DIRECTION('',(0.,0.,-1.));
#344=DIRECTION('',(0.,1.,0.));
#345=DIRECTION('',(0.,0.,1.));
#346=DIRECTION('',(0.,0.,-1.));
#347=DIRECTION('',(1.,0.,0.));
#348=DIRECTION('',(1.,0.,0.));
#349=DIRECTION('',(1.,0.,0.));
#350=DIRECTION('',(0.,0.,-1.));
#351=DIRECTION('',(0.,0.,-1.));
#352=DIRECTION('',(0.,-1.,0.));
#353=DIRECTION('',(0.,-1.,0.));
#354=DIRECTION('',(0.,1.,0.));
#355=DIRECTION('',(0.,0.,1.));
#356=DIRECTION('',(1.,0.,0.));
#357=DIRECTION('',(1.,0.,0.));
#358=DIRECTION('',(0.,1.,0.));
#359=DIRECTION('',(0.,0.,1.));
#360=DIRECTION('',(1.,0.,0.));
#361=DIRECTION('',(0.,0.,-1.));
#362=DIRECTION('',(1.,0.,0.));
#363=DIRECTION('',(0.,0.,-1.));
#364=DIRECTION('',(1.,0.,0.));
#365=DIRECTION('',(0.,0.,-1.));
#366=DIRECTION('',(0.,-1.,0.));
#367=DIRECTION('',(0.,0.,-1.));
#368=DIRECTION('',(0.,-1.,0.));
#369=DIRECTION('',(0.,1.,0.));
#370=DIRECTION('',(0.,0.,1.));
#371=DIRECTION('',(1.,0.,0.));
#372=DIRECTION('',(0.,0.,-1.));
#373=DIRECTION('',(1.,0.,0.));
#374=DIRECTION('',(1.,0.,0.));
#375=DIRECTION('',(0.,0.,-1.));
#376=DIRECTION('',(0.,0.,-1.));
#377=DIRECTION('',(0.,-1.,0.));
#378=DIRECTION('',(0.,0.,-1.));
#379=DIRECTION('',(0.,-1.,0.));
#380=DIRECTION('',(0.,1.,0.));
#381=DIRECTION('',(0.,0.,1.));
#382=DIRECTION('',(1.,0.,0.));
#383=DIRECTION('',(0.,0.,-1.));
#384=DIRECTION('',(1.,0.,0.));
#385=DIRECTION('',(1.,0.,0.));
#386=DIRECTION('',(0.,0.,-1.));
#387=DIRECTION('',(0.,-1.,0.));
#388=DIRECTION('',(0.,0.,-1.));
#389=DIRECTION('',(0.,-1.,0.));
#390=DIRECTION('',(0.,1.,0.));
#391=DIRECTION('',(0.,0.,1.));
#392=DIRECTION('',(1.,0.,0.));
#393=DIRECTION('',(1.,0.,0.));
#394=DIRECTION('',(1.,0.,0.));
#395=DIRECTION('',(0.,0.,-1.));
#396=DIRECTION('',(0.,-1.,0.));
#397=DIRECTION('',(0.,-1.,0.));
#398=DIRECTION('',(0.,0.,1.));
#399=DIRECTION('',(1.,0.,0.));
#400=DIRECTION('',(0.,0.,1.));
#401=DIRECTION('',(1.,0.,0.));
#402=DIRECTION('',(0.,0.,-1.));
#403=DIRECTION('',(-1.,0.,0.));
#404=DIRECTION('',(0.,0.,1.));
#405=DIRECTION('',(1.,0.,0.));
#406=DIRECTION('',(0.,0.,1.));
#407=DIRECTION('',(1.,0.,0.));
#408=DIRECTION('',(0.,0.,1.));
#409=DIRECTION('',(1.,0.,0.));
#410=DIRECTION('',(0.,0.,1.));
#411=DIRECTION('',(1.,0.,0.));
#412=CARTESIAN_POINT('',(0.,0.,0.));
#413=CARTESIAN_POINT('',(-0.06305,-0.04465,0.01051));
#414=CARTESIAN_POINT('',(-0.06305,-0.04465,0.005195));
#415=CARTESIAN_POINT('',(-0.06305,-0.04145,0.005195));
#416=CARTESIAN_POINT('',(-0.06305,-0.04785,0.005195));
#417=CARTESIAN_POINT('',(-0.06305,-0.04145,0.01051));
#418=CARTESIAN_POINT('',(-0.06305,-0.04145,0.00151));
#419=CARTESIAN_POINT('',(-0.06305,-0.04465,0.00151));
#420=CARTESIAN_POINT('',(-0.06305,-0.04785,0.00151));
#421=CARTESIAN_POINT('',(-0.06305,-0.04785,0.01051));
#422=CARTESIAN_POINT('',(-0.06625,-0.04785,0.01051));
#423=CARTESIAN_POINT('',(-0.06945,-0.04785,0.01051));
#424=CARTESIAN_POINT('',(-0.06945,-0.04785,0.005195));
#425=CARTESIAN_POINT('',(-0.06945,-0.04785,0.00151));
#426=CARTESIAN_POINT('',(-0.06625,-0.04785,0.005195));
#427=CARTESIAN_POINT('',(-0.06625,-0.04785,0.00151));
#428=CARTESIAN_POINT('',(-0.06945,-0.04465,0.01051));
#429=CARTESIAN_POINT('',(-0.06945,-0.04145,0.01051));
#430=CARTESIAN_POINT('',(-0.06945,-0.04145,0.005195));
#431=CARTESIAN_POINT('',(-0.06945,-0.04145,0.00151));
#432=CARTESIAN_POINT('',(-0.06945,-0.04465,0.005195));
#433=CARTESIAN_POINT('',(-0.06945,-0.04465,0.00151));
#434=CARTESIAN_POINT('',(-0.06625,-0.04145,0.01051));
#435=CARTESIAN_POINT('',(-0.06625,-0.04145,0.005195));
#436=CARTESIAN_POINT('',(-0.06625,-0.04145,0.00151));
#437=CARTESIAN_POINT('',(-0.06625,-0.04045,0.01051));
#438=CARTESIAN_POINT('',(-0.06625,-0.04045,0.00151));
#439=CARTESIAN_POINT('',(-0.07045,-0.04045,0.00151));
#440=CARTESIAN_POINT('',(-0.06205,-0.04045,0.00151));
#441=CARTESIAN_POINT('',(-0.07045,-0.04045,0.01051));
#442=CARTESIAN_POINT('',(-0.07045,-0.04045,0.01051));
#443=CARTESIAN_POINT('',(-0.06625,-0.04045,0.01051));
#444=CARTESIAN_POINT('',(-0.06205,-0.04045,0.01051));
#445=CARTESIAN_POINT('',(-0.06205,-0.04045,0.01051));
#446=CARTESIAN_POINT('',(-0.07045,-0.04465,0.01051));
#447=CARTESIAN_POINT('',(-0.07045,-0.04465,0.00151));
#448=CARTESIAN_POINT('',(-0.07045,-0.04885,0.00151));
#449=CARTESIAN_POINT('',(-0.07045,-0.04885,0.01051));
#450=CARTESIAN_POINT('',(-0.07045,-0.04885,0.01051));
#451=CARTESIAN_POINT('',(-0.07045,-0.04465,0.01051));
#452=CARTESIAN_POINT('',(-0.06625,-0.04885,0.01051));
#453=CARTESIAN_POINT('',(-0.06625,-0.04885,0.00151));
#454=CARTESIAN_POINT('',(-0.06205,-0.04885,0.00151));
#455=CARTESIAN_POINT('',(-0.06205,-0.04885,0.01051));
#456=CARTESIAN_POINT('',(-0.06205,-0.04885,0.01051));
#457=CARTESIAN_POINT('',(-0.06625,-0.04885,0.01051));
#458=CARTESIAN_POINT('',(-0.06305,-0.04465,0.01051));
#459=CARTESIAN_POINT('',(-0.06305,-0.04145,0.01051));
#460=CARTESIAN_POINT('',(-0.06305,-0.04145,0.01051));
#461=CARTESIAN_POINT('',(-0.06305,-0.04145,0.010495));
#462=CARTESIAN_POINT('',(-0.06305,-0.04465,0.010495));
#463=CARTESIAN_POINT('',(-0.06305,-0.04785,0.010495));
#464=CARTESIAN_POINT('',(-0.06305,-0.04785,0.01051));
#465=CARTESIAN_POINT('',(-0.06305,-0.04785,0.01051));
#466=CARTESIAN_POINT('',(-0.06305,-0.04465,0.01051));
#467=CARTESIAN_POINT('',(-0.06625,-0.04785,0.01051));
#468=CARTESIAN_POINT('',(-0.06625,-0.04785,0.010495));
#469=CARTESIAN_POINT('',(-0.06945,-0.04785,0.010495));
#470=CARTESIAN_POINT('',(-0.06945,-0.04785,0.01051));
#471=CARTESIAN_POINT('',(-0.06945,-0.04785,0.01051));
#472=CARTESIAN_POINT('',(-0.06625,-0.04785,0.01051));
#473=CARTESIAN_POINT('',(-0.06945,-0.04465,0.01051));
#474=CARTESIAN_POINT('',(-0.06945,-0.04465,0.010495));
#475=CARTESIAN_POINT('',(-0.06945,-0.04145,0.010495));
#476=CARTESIAN_POINT('',(-0.06945,-0.04145,0.01051));
#477=CARTESIAN_POINT('',(-0.06945,-0.04145,0.01051));
#478=CARTESIAN_POINT('',(-0.06945,-0.04465,0.01051));
#479=CARTESIAN_POINT('',(-0.06625,-0.04145,0.01051));
#480=CARTESIAN_POINT('',(-0.06625,-0.04145,0.010495));
#481=CARTESIAN_POINT('',(-0.06625,-0.04145,0.01051));
#482=CARTESIAN_POINT('',(-0.06205,-0.04465,0.01051));
#483=CARTESIAN_POINT('',(-0.06205,-0.04465,0.00151));
#484=CARTESIAN_POINT('',(-0.06205,-0.04465,0.01051));
#485=CARTESIAN_POINT('',(-0.00084999999999999,-0.000649999999996501,0.01051));
#486=CARTESIAN_POINT('',(-0.00084999999999999,-0.000649999999996501,0.00151));
#487=CARTESIAN_POINT('',(-0.06625,-0.04465,0.010495));
#488=CARTESIAN_POINT('',(-0.06625,-0.04465,0.010495));
#489=CARTESIAN_POINT('',(-0.06415,-0.04465,0.010495));
#490=CARTESIAN_POINT('',(-0.06625,-0.04465,0.005195));
#491=CARTESIAN_POINT('',(-0.06415,-0.04465,0.005195));
#492=CARTESIAN_POINT('',(-0.05785,-0.0374,0.010495));
#493=CARTESIAN_POINT('',(-0.05785,-0.0374,0.005195));
#494=MECHANICAL_DESIGN_GEOMETRIC_PRESENTATION_REPRESENTATION('',(#305),
#495);
#495=(
GEOMETRIC_REPRESENTATION_CONTEXT(3)
GLOBAL_UNCERTAINTY_ASSIGNED_CONTEXT((#496))
GLOBAL_UNIT_ASSIGNED_CONTEXT((#499,#498,#497))
REPRESENTATION_CONTEXT('Button-body_1','TOP_LEVEL_ASSEMBLY_PART')
);
#496=UNCERTAINTY_MEASURE_WITH_UNIT(LENGTH_MEASURE(1.E-8),#499,
'DISTANCE_ACCURACY_VALUE','Maximum Tolerance applied to model');
#497=(
NAMED_UNIT(*)
SI_UNIT($,.STERADIAN.)
SOLID_ANGLE_UNIT()
);
#498=(
NAMED_UNIT(*)
PLANE_ANGLE_UNIT()
SI_UNIT($,.RADIAN.)
);
#499=(
LENGTH_UNIT()
NAMED_UNIT(*)
SI_UNIT($,.METRE.)
);
#500=PRODUCT_DEFINITION_SHAPE('','',#501);
#501=PRODUCT_DEFINITION('','',#503,#502);
#502=PRODUCT_DEFINITION_CONTEXT('',#509,'design');
#503=PRODUCT_DEFINITION_FORMATION_WITH_SPECIFIED_SOURCE('','',#505,
 .NOT_KNOWN.);
#504=PRODUCT_RELATED_PRODUCT_CATEGORY('','',(#505));
#505=PRODUCT('Button-body_1','Button-body_1','Button-body_1',(#507));
#506=PRODUCT_CATEGORY('','');
#507=PRODUCT_CONTEXT('',#509,'mechanical');
#508=APPLICATION_PROTOCOL_DEFINITION('international standard',
'ap242_managed_model_based_3d_engineering',2020,#509);
#509=APPLICATION_CONTEXT('managed model based 3d engineering');
ENDSEC;
END-ISO-10303-21;
